REM MD5 5611b155a8cb72d1a217befac8a0e1e9
FILE "Barca Manager 2000 (Spain) (Es,Ca).bin" BINARY
  TRACK 01 MODE2/2352
    INDEX 01 00:00:00
  TRACK 02 AUDIO
    INDEX 00 06:42:60
    INDEX 01 06:44:60
  TRACK 03 AUDIO
    INDEX 00 08:30:43
    INDEX 01 08:32:43
  TRACK 04 AUDIO
    INDEX 00 11:05:71
    INDEX 01 11:07:71
REM LEADOUT 12:07:71
